#!OML:ASF F:\VICON\USERDATA\INSTALL\rory3\rory3.ASF
:FULLY-SPECIFIED
:DEGREES
19
root -0.6419760467208091 17.683200930751237 -13.638691151153525 -1.4434022421035682 6.873764295416189 -3.886075508266562
lfemur -23.751496158640336 -3.5018229992753707 -21.614798879911902
ltibia 40.95960494716881
lfoot -11.770492258430922 -10.711393951756198
ltoes -1.549438986165896
rfemur -7.638075314935616 -2.109073564721662 27.04960382182674
rtibia 96.09898943507854
rfoot 21.07318836933088 -13.163589872400987
rtoes 16.75529093526263
lowerback 16.497294665853378 1.0708685801249125 2.7687665678337847
upperback -0.0810401971793131 2.0672180570798093 1.1520152583587333
thorax -9.314926446702975 0.89152038332839 -0.8248265366114419
lowerneck -18.95710907201227 -5.346237131362294 -1.6914257418308614
upperneck 15.242890852615213 -7.620285833971931 4.051617598997037
head 8.059281598788417 -3.300166915230908 0.6760169324908786
lclavicle -1.7288339579140546e-15 1.7836277406293794e-15
lhumerus -61.08469287871746 -12.545202606964613 100.14099149352263
lradius 104.07300453730622
lwrist 33.45060030874515
lhand -25.856195461204592 0.7974909785469493
lfingers 7.12502
lthumb 0.6846115312644712 30.776103954813294
rclavicle -1.7288339579140546e-15 1.7836277406293794e-15
rhumerus -48.45430220059123 14.403489746506656 -101.75298760654478
rradius 104.6730078703663
rwrist -7.87791826191213
rhand -19.72158448437796 40.73909400224832
rfingers 7.12502
rthumb 6.6085656298443975 10.862194711397462
20
root -0.6466339297476754 17.474904309875008 -12.685891203494519 -1.1420037506779241 6.632264932292822 -2.5196102223956243
lfemur -22.372296868982566 -3.7977622864838767 -23.298896197680506
ltibia 45.081002645401725
lfoot -17.152487505831814 -7.689818912445531
ltoes 2.0965072937951312
rfemur -13.3077027587318 -3.786109668818779 23.90240915347134
rtibia 102.40698580909572
rfoot 20.997888626208372 -9.95280457613119
rtoes 15.041692378166726
lowerback 16.843592693252795 1.0303288455324946 0.9001372979979538
upperback 0.15045851686971012 1.6215396960297608 0.8064198433344687
thorax -9.309296540180364 0.7562996203157233 -0.03689990158299761
lowerneck -19.70270476026039 -5.254087752535584 -1.367471118519303
upperneck 15.087891786501622 -7.553945986516389 3.9693783346505027
head 8.117170190129487 -3.2486075000435086 0.5904370399563292
lclavicle -1.7288340642170573e-15 1.7836277577894746e-15
lhumerus -56.908796044123015 -14.232599850400652 100.17699142576025
lradius 104.53000408765587
lwrist 34.90129573029015
lhand -24.96100040442478 0.05629581559499086
lfingers 7.12502
lthumb 1.5492695954365574 30.03040641028186
rclavicle -1.7288340642170573e-15 1.7836277577894746e-15
rhumerus -49.2373014891497 13.324791696888811 -101.86498696693953
rradius 101.65501295321884
rwrist -6.520573334747023
rhand -22.24657155136114 37.4437150293749
rfingers 7.12502
rthumb 4.170698460321952 7.504846538011252
21
root -0.6109926947297971 17.193052523539162 -9.71057843339579 -0.6486888497769883 4.8797417116276725 0.596073128852709
lfemur -19.421410494521055 -1.6963824364047209 -25.46149386917949
ltibia 47.47344919101212
lfoot -20.63512609577029 -2.2455563488218457
ltoes -1.2493396437212283
rfemur -19.7681908151861 -3.537170176223434 20.02560764478254
rtibia 107.81778475515682
rfoot 18.477862297969622 -6.819454686706764
rtoes 20.354493855304536
lowerback 17.559452209874816 1.5888851202602643 -3.1428073738314266
upperback -0.04170194149137885 1.5403159593082223 -0.37449727470454386
thorax -9.656172040456246 0.8869651398124057 1.0655564509607747
lowerneck -20.227912024591852 -5.082954352812219 -1.7140304863217484
upperneck 14.821267379530113 -7.288242257925321 4.406307583517401
head 8.099204765027737 -2.996965006000141 1.1124314814766845
lclavicle -1.727619351875154e-15 1.784510196147513e-15
lhumerus -51.452087118893324 -17.113079308852292 100.18896795921854
lradius 102.39499400629838
lwrist 35.249486820057875
lhand -25.242283068316418 0.7807151669876626
lfingers 7.12502
lthumb 1.0890078672302057 30.838172933473004
rclavicle -1.7251286824724292e-15 1.7873906438309546e-15
rhumerus -50.026455811245945 11.523314187403326 -101.7696057417987
rradius 100.95072235909086
rwrist -6.290588484793535
rhand -18.131453276831014 39.490457937062274
rfingers 7.12502
rthumb 7.099110806323946 9.599176352356062
22
root -0.5763369871524913 16.979688925588643 -9.438348528491177 0.16711326766209167 4.290466404617924 1.533645487360952
lfemur -16.356222947972157 -0.9999422620817182 -26.003765383792537
ltibia 48.33312336440365
lfoot -23.72354202190585 1.3579982166342672
ltoes -2.3964714436624437
rfemur -26.647804655117334 -3.889926896294597 18.58270026729908
rtibia 111.31319415266233
rfoot 16.19545993725329 -4.592728092074033
rtoes 22.04900523554943
lowerback 17.863162917884264 1.5797432579976285 -4.335984193532945
upperback 0.07346011389488294 1.3377094940353524 -0.7522815616289353
thorax -9.945113081831694 0.793652564722638 1.4447404614274237
lowerneck -20.454901839280588 -4.881179950574835 -1.9558950218603044
upperneck 14.544961242131306 -6.985594476566671 4.665372138841375
head 8.087142198149387 -2.8536364141969615 1.2361215247202162
lclavicle -1.7280208257680794e-15 1.7842192790630898e-15
lhumerus -46.002417830039576 -19.46908656507181 99.76201056621102
lradius 101.26012628107384
lwrist 34.6627617941457
lhand -24.828690175205463 1.9812592972160674
lfingers 7.12502
lthumb 1.3047340392483344 31.85556571267544
rclavicle -1.7245123804755027e-15 1.7873095737028917e-15
rhumerus -50.95665729867379 10.0305680675406 -101.50594625685717
rradius 101.74002815932413
rwrist -6.735048048689711
rhand -17.886818644101286 39.14227919442115
rfingers 7.12502
rthumb 7.840990546736925 8.869800579308697
